<svg width="108" height="39" viewBox="0 0 108 39" fill="none" xmlns="http://www.w3.org/2000/svg">
<path d="M19.0041 36C14.6843 35.8574 10.594 34.0399 7.61509 30.9393C4.63617 27.8388 3.00715 23.7035 3.0792 19.4249C3.15124 15.1463 4.91859 11.0671 8.00025 8.06662C11.0819 5.06611 15.2311 3.38462 19.5533 3.38462C23.8756 3.38462 28.0247 5.06611 31.1064 8.06662C34.1881 11.0671 35.9554 15.1463 36.0275 19.4249C36.0995 23.7035 34.4705 27.8388 31.4916 30.9393C28.5126 34.0399 24.4224 35.8574 20.1025 36H19.0041ZM42.0711 36C37.7513 35.8574 33.661 34.0399 30.6821 30.9393C27.7032 27.8388 26.0741 23.7035 26.1462 19.4249C26.2182 15.1463 27.9856 11.0671 31.0672 8.06662C34.1489 5.06611 38.2981 3.38462 42.6203 3.38462C46.9426 3.38462 51.0917 5.06611 54.1734 8.06662C57.2551 11.0671 59.0224 15.1463 59.0945 19.4249C59.1665 23.7035 57.5375 27.8388 54.5586 30.9393C51.5796 34.0399 47.4894 35.8574 43.1695 36H42.0711ZM65.1381 36C60.8182 35.8574 56.728 34.0399 53.7491 30.9393C50.7701 27.8388 49.1411 23.7035 49.2132 19.4249C49.2852 15.1463 51.0526 11.0671 54.1342 8.06662C57.2159 5.06611 61.3651 3.38462 65.6873 3.38462C70.0096 3.38462 74.1587 5.06611 77.2404 8.06662C80.322 11.0671 82.0894 15.1463 82.1614 19.4249C82.2335 23.7035 80.6045 27.8388 77.6255 30.9393C74.6466 34.0399 70.5564 35.8574 66.2365 36H65.1381ZM88.2051 36C83.8852 35.8574 79.795 34.0399 76.8161 30.9393C73.8371 27.8388 72.2081 23.7035 72.2802 19.4249C72.3522 15.1463 74.1196 11.0671 77.2012 8.06662C80.2829 5.06611 84.432 3.38462 88.7543 3.38462C93.0765 3.38462 97.2257 5.06611 100.307 8.06662C103.389 11.0671 105.156 15.1463 105.228 19.4249C105.3 23.7035 103.671 27.8388 100.693 30.9393C97.7136 34.0399 93.6234 35.8574 89.3035 36H88.2051Z" stroke="black" stroke-width="5"/>
</svg>
