<svg width="62" height="42" viewBox="0 0 62 42" fill="none" xmlns="http://www.w3.org/2000/svg">
    <path
        d="M18.2666 0.333984C18.2464 0.333984 18.2261 0.333984 18.2059 0.333984L18.1249 7.12298C18.1451 7.12298 18.1654 7.12298 18.1755 7.12298C22.5596 7.12298 25.9616 10.6467 33.363 23.336L33.8186 24.111L33.849 24.1627L37.9901 17.8387L37.9598 17.787C36.9878 16.175 36.0461 14.687 35.1551 13.3333C34.1123 11.7627 33.12 10.3573 32.148 9.10698C27.2576 2.75198 23.157 0.333984 18.2666 0.333984Z"
        fill="url(#paint0_linear_3_3656)" />
    <path
        d="M18.2059 0.332599C13.2851 0.353265 8.94149 3.59793 5.79261 8.55793C5.78249 8.56827 5.77236 8.58893 5.76224 8.59927L11.5234 11.7923C11.5335 11.7819 11.5436 11.7613 11.5537 11.7509C13.3864 8.94027 15.6746 7.14227 18.1147 7.11127C18.135 7.11127 18.1552 7.11127 18.1654 7.11127L18.2464 0.322266C18.2464 0.332599 18.2261 0.332599 18.2059 0.332599Z"
        fill="url(#paint1_linear_3_3656)" />
    <path
        d="M5.80276 8.55859C5.79264 8.56893 5.78251 8.58959 5.77239 8.59993C3.70689 11.8756 2.16789 15.8849 1.33764 20.2249C1.33764 20.2456 1.32751 20.2663 1.32751 20.2766L7.80751 21.8369C7.80751 21.8163 7.81764 21.7956 7.81764 21.7853C8.50614 17.9723 9.83251 14.4486 11.5436 11.8033C11.5538 11.7929 11.5639 11.7723 11.574 11.7619L5.80276 8.55859Z"
        fill="url(#paint2_linear_3_3656)" />
    <path
        d="M7.81763 21.7849L1.33763 20.2246C1.33763 20.2453 1.32751 20.2659 1.32751 20.2763C0.871883 22.6633 0.639008 25.0813 0.639008 27.5096C0.639008 27.5303 0.639008 27.5509 0.639008 27.5716L7.28101 28.1813C7.28101 28.1606 7.28101 28.1399 7.28101 28.1193C7.28101 27.9746 7.28101 27.8403 7.28101 27.6956C7.28101 25.7323 7.46326 23.7689 7.80751 21.8469C7.80751 21.8159 7.80751 21.8056 7.81763 21.7849Z"
        fill="url(#paint3_linear_3_3656)" />
    <path
        d="M7.48351 30.2894C7.36201 29.5868 7.30126 28.8841 7.28101 28.1814C7.28101 28.1608 7.28101 28.1401 7.28101 28.1194L0.639012 27.5098C0.639012 27.5304 0.639012 27.5511 0.639012 27.5718C0.628887 28.9874 0.750387 30.4031 1.00351 31.8084C1.00351 31.8291 1.01364 31.8498 1.01364 31.8601L7.49364 30.3411C7.48351 30.3308 7.48351 30.3101 7.48351 30.2894Z"
        fill="url(#paint4_linear_3_3656)" />
    <path
        d="M8.99213 33.7921C8.27326 32.9861 7.75688 31.8287 7.49363 30.3407C7.49363 30.3201 7.48351 30.2994 7.48351 30.2891L1.00351 31.8081C1.00351 31.8287 1.01363 31.8494 1.01363 31.8597C1.49963 34.4844 2.46151 36.6647 3.83851 38.3181C3.84863 38.3284 3.85876 38.3491 3.87901 38.3594L9.03263 33.8334C9.02251 33.8231 9.01238 33.8024 8.99213 33.7921Z"
        fill="url(#paint5_linear_3_3656)" />
    <path
        d="M28.1891 15.0059C24.2809 21.1129 21.9218 24.9362 21.9218 24.9362C16.7175 33.2442 14.9254 35.1042 12.0296 35.1042C10.8248 35.1042 9.81226 34.6702 9.04276 33.8229C9.03263 33.8125 9.01238 33.7919 9.00226 33.7815L3.84863 38.3075C3.85876 38.3179 3.86888 38.3385 3.88913 38.3489C5.79263 40.6015 8.46563 41.8519 11.7866 41.8519C16.8086 41.8519 20.4131 39.4442 26.8324 28.0155C26.8324 28.0155 29.5054 23.2002 31.3481 19.8832C30.1838 18.0335 29.151 16.4112 28.1891 15.0059Z"
        fill="#0082FB" />
    <path
        d="M35.1551 5.37695C35.145 5.38729 35.1248 5.40795 35.1146 5.41829C34.0616 6.58595 33.0694 7.81562 32.148 9.09695C33.1099 10.3473 34.1123 11.7526 35.1551 13.3336C36.3803 11.4013 37.5244 9.84095 38.6483 8.64229C38.6584 8.63195 38.6786 8.61129 38.6888 8.60095L35.1551 5.37695Z"
        fill="url(#paint6_linear_3_3656)" />
    <path
        d="M54.1091 4.77732C51.3855 1.97698 48.1354 0.333984 44.6726 0.333984C41.0175 0.333984 37.9294 2.37998 35.1551 5.37665C35.145 5.38698 35.1247 5.40765 35.1146 5.41798L38.6482 8.63165C38.6584 8.62132 38.6786 8.60065 38.6887 8.59032C40.5214 6.64765 42.2933 5.68665 44.2474 5.68665C46.3635 5.68665 48.3379 6.69932 50.049 8.47665C50.0591 8.48698 50.0794 8.50765 50.0895 8.51798L54.1496 4.81865C54.1395 4.80832 54.1192 4.79798 54.1091 4.77732Z"
        fill="#0082FB" />
    <path
        d="M61.9763 26.622C61.8244 17.6217 58.7363 9.57201 54.1395 4.81868C54.1294 4.80834 54.1091 4.78768 54.099 4.77734L50.0389 8.47668C50.049 8.48701 50.0693 8.50768 50.0794 8.51801C53.532 12.1347 55.9013 18.8513 56.1139 26.622C56.1139 26.6427 56.1139 26.6633 56.1139 26.684H61.9763C61.9864 26.6633 61.9763 26.6427 61.9763 26.622Z"
        fill="url(#paint7_linear_3_3656)" />
    <path
        d="M61.9864 26.6831C61.9864 26.6624 61.9864 26.6418 61.9864 26.6211H56.124C56.124 26.6418 56.124 26.6624 56.124 26.6831C56.1341 27.0448 56.1341 27.4168 56.1341 27.7784C56.1341 29.8968 55.8202 31.6121 55.1925 32.8418C55.1824 32.8624 55.1722 32.8831 55.1621 32.8934L59.526 37.5228C59.5361 37.5021 59.5462 37.4918 59.5564 37.4711C61.146 34.9808 61.9762 31.5191 61.9762 27.3134C61.9864 27.1068 61.9864 26.8898 61.9864 26.6831Z"
        fill="url(#paint8_linear_3_3656)" />
    <path
        d="M55.1925 32.8418C55.1824 32.8625 55.1722 32.8831 55.1621 32.8935C54.6154 33.9371 53.8357 34.6295 52.8131 34.9291L54.8077 41.3255C55.071 41.2325 55.3241 41.1291 55.5772 41.0155C55.6481 40.9845 55.7291 40.9431 55.8 40.9121C55.8405 40.8915 55.881 40.8708 55.9215 40.8501C57.2479 40.1681 58.392 39.1658 59.2526 37.9258C59.3032 37.8431 59.364 37.7708 59.4146 37.6881C59.4551 37.6365 59.4855 37.5745 59.526 37.5228C59.5361 37.5021 59.5462 37.4918 59.5564 37.4711L55.1925 32.8418Z"
        fill="url(#paint9_linear_3_3656)" />
    <path
        d="M51.5576 35.1156C50.9299 35.1259 50.3021 35.0019 49.725 34.7539L47.6899 41.3052C48.834 41.7082 50.0591 41.8839 51.426 41.8839C52.6005 41.8942 53.7649 41.7082 54.8786 41.3259L52.884 34.9296C52.4486 35.0536 52.0031 35.1156 51.5576 35.1156Z"
        fill="url(#paint10_linear_3_3656)" />
    <path
        d="M47.4772 32.8734C47.4671 32.863 47.457 32.8424 47.4367 32.832L42.7489 37.8024C42.759 37.8127 42.7792 37.8334 42.7894 37.8437C44.4195 39.6107 45.9787 40.7164 47.7405 41.3157L49.7756 34.7747C49.0365 34.444 48.3075 33.855 47.4772 32.8734Z"
        fill="url(#paint11_linear_3_3656)" />
    <path
        d="M47.4368 32.8311C46.0294 31.1674 44.2879 28.3877 41.5541 23.9031L37.98 17.8271L37.9496 17.7754L33.8085 24.0994L33.8389 24.1511L36.3701 28.4807C38.8204 32.6554 40.815 35.6831 42.7489 37.7911C42.759 37.8014 42.7793 37.8221 42.7894 37.8324L47.4773 32.8621C47.4671 32.8621 47.4469 32.8414 47.4368 32.8311Z"
        fill="url(#paint12_linear_3_3656)" />
    <defs>
        <linearGradient id="paint0_linear_3_3656" x1="35.2135" y1="21.6017" x2="21.1424" y2="3.50719"
            gradientUnits="userSpaceOnUse">
            <stop offset="0.0006" stop-color="#0867DF" />
            <stop offset="0.4539" stop-color="#0668E1" />
            <stop offset="0.8591" stop-color="#0064E0" />
        </linearGradient>
        <linearGradient id="paint1_linear_3_3656" x1="8.48512" y1="9.7074" x2="18.0356" y2="2.59189"
            gradientUnits="userSpaceOnUse">
            <stop offset="0.1323" stop-color="#0064DF" />
            <stop offset="0.9988" stop-color="#0064E0" />
        </linearGradient>
        <linearGradient id="paint2_linear_3_3656" x1="4.48774" y1="20.3958" x2="8.39157" y2="10.7518"
            gradientUnits="userSpaceOnUse">
            <stop offset="0.0147" stop-color="#0072EC" />
            <stop offset="0.6881" stop-color="#0064DF" />
        </linearGradient>
        <linearGradient id="paint3_linear_3_3656" x1="3.97271" y1="27.3978" x2="4.42668" y2="21.4785"
            gradientUnits="userSpaceOnUse">
            <stop offset="0.0731" stop-color="#007CF6" />
            <stop offset="0.9943" stop-color="#0072EC" />
        </linearGradient>
        <linearGradient id="paint4_linear_3_3656" x1="4.21279" y1="30.6139" x2="3.88823" y2="28.2434"
            gradientUnits="userSpaceOnUse">
            <stop offset="0.0731" stop-color="#007FF9" />
            <stop offset="1" stop-color="#007CF6" />
        </linearGradient>
        <linearGradient id="paint5_linear_3_3656" x1="4.03074" y1="31.2355" x2="6.04083" y2="35.4195"
            gradientUnits="userSpaceOnUse">
            <stop offset="0.0731" stop-color="#007FF9" />
            <stop offset="1" stop-color="#0082FB" />
        </linearGradient>
        <linearGradient id="paint6_linear_3_3656" x1="33.9935" y1="10.8546" x2="36.6347" y2="7.26973"
            gradientUnits="userSpaceOnUse">
            <stop offset="0.2799" stop-color="#007FF8" />
            <stop offset="0.9141" stop-color="#0082FB" />
        </linearGradient>
        <linearGradient id="paint7_linear_3_3656" x1="53.5902" y1="6.14357" x2="59.1733" y2="26.2998"
            gradientUnits="userSpaceOnUse">
            <stop stop-color="#0082FB" />
            <stop offset="0.9995" stop-color="#0081FA" />
        </linearGradient>
        <linearGradient id="paint8_linear_3_3656" x1="60.2726" y1="27.1239" x2="56.7566" y2="34.0973"
            gradientUnits="userSpaceOnUse">
            <stop offset="0.0619" stop-color="#0081FA" />
            <stop offset="1" stop-color="#0080F9" />
        </linearGradient>
        <linearGradient id="paint9_linear_3_3656" x1="54.1554" y1="37.8793" x2="57.3827" y2="35.7221"
            gradientUnits="userSpaceOnUse">
            <stop stop-color="#027AF3" />
            <stop offset="1" stop-color="#0080F9" />
        </linearGradient>
        <linearGradient id="paint10_linear_3_3656" x1="49.1519" y1="38.3108" x2="53.5841" y2="38.3108"
            gradientUnits="userSpaceOnUse">
            <stop stop-color="#0377EF" />
            <stop offset="0.9994" stop-color="#0279F1" />
        </linearGradient>
        <linearGradient id="paint11_linear_3_3656" x1="45.2997" y1="35.8215" x2="48.5166" y2="37.6788"
            gradientUnits="userSpaceOnUse">
            <stop offset="0.0019" stop-color="#0471E9" />
            <stop offset="1" stop-color="#0377EF" />
        </linearGradient>
        <linearGradient id="paint12_linear_3_3656" x1="35.5866" y1="21.7307" x2="46.03" y2="34.6164"
            gradientUnits="userSpaceOnUse">
            <stop offset="0.2765" stop-color="#0867DF" />
            <stop offset="1" stop-color="#0471E9" />
        </linearGradient>
    </defs>
</svg>