<svg width="148" height="42" viewBox="0 0 148 42" fill="none" xmlns="http://www.w3.org/2000/svg">
<path d="M84.5159 26.7634H90.353V20.8996L69.6534 0.210938H63.8031V6.05858L71.2249 13.4805L63.8031 20.8998V26.7636H69.6374L77.078 19.3282L84.5159 26.7634Z" fill="black"/>
<path d="M90.4867 7.1223L85.0425 12.5664L77.9974 5.52135L83.4416 0.0771484" fill="url(#paint0_linear_325_26667)"/>
<path d="M83.4412 0.0771484H90.489V7.12482H83.4413L83.4412 0.0771484ZM112.851 21.4368L115.422 26.7634H120.976V20.8836L111.763 0.838887L111.496 0.208061H104.012L103.745 0.833534L94.4311 20.8782V26.758H99.8833L102.436 21.4316L112.851 21.4368ZM107.711 7.56049L111.066 15.5277H104.344L107.711 7.56049ZM51.6048 21.4368L54.1759 26.7634H59.7323V20.8836L50.517 0.841615L50.2497 0.210789H42.7664L42.4992 0.83616L33.1851 20.881V26.7607H38.6399L41.3126 21.4341L51.6048 21.4368ZM46.4547 7.56049L49.8114 15.5277H43.0978L46.4547 7.56049ZM134.523 17.027L134.595 17.1126L142.549 26.6886H147.461V21.7869L142.544 16.113L143.172 15.8082C144.215 15.3006 145.135 14.5708 145.866 13.6701C146.999 12.2857 147.576 10.5405 147.576 8.48789C147.576 5.83125 146.694 3.75725 144.955 2.32479C143.258 0.918991 141.004 0.210688 138.244 0.210688H125.351V26.7634H131.952V16.8453H134.371L134.523 17.027ZM131.952 10.8639V6.09045H138.615C139.234 6.11099 139.821 6.3713 140.251 6.81639C140.682 7.26148 140.923 7.8565 140.923 8.47577C140.923 9.09504 140.682 9.69006 140.251 10.1352C139.821 10.5802 139.234 10.8406 138.615 10.8611H131.952V10.8639ZM22.2032 26.7634H28.7939L28.7908 0.210789H21.7111L21.2487 0.911011L14.666 11.6069L8.07521 0.903031L7.62096 0.210789H0.538433L0.541463 26.7634H7.13215V12.9672L12.0285 21.4368H17.3095L22.2032 12.9672V26.7634ZM38.7067 36.1176H36.9721L36.8786 36.2085V41.1129L36.7876 41.2038H35.3071L35.2136 41.1129V36.2085L35.1226 36.1176H33.2731L33.1796 36.024V34.8213L33.2731 34.7304H38.7066L38.8001 34.8213V36.024L38.7067 36.1176ZM45.7064 41.2036H40.9972L40.9036 41.1127V34.8214L40.9972 34.7305H45.7064L45.7998 34.8214V36.024L45.7063 36.1176H42.6622L42.5686 36.2085V37.1333L42.6622 37.2268H45.5299L45.6208 37.3203V38.523L45.5299 38.6139H42.6622L42.5686 38.7074V39.7257L42.6622 39.8166H45.7063L45.7998 39.9102V41.1129L45.7064 41.2036ZM47.6707 37.9671C47.6707 35.7461 49.1487 34.637 50.9072 34.637C52.5723 34.637 53.5799 35.4682 53.8685 36.6708L53.775 36.7644H52.2302L52.11 36.6708C51.9255 36.3021 51.6476 36.0241 50.9072 36.0241C50.0734 36.0241 49.3358 36.4865 49.3358 37.9671C49.3358 39.4478 50.0734 39.9101 50.9072 39.9101C51.6477 39.9101 51.9255 39.6428 52.11 39.1698L52.2302 39.0762H53.775L53.8685 39.1698C53.6012 40.4633 52.5723 41.3079 50.9072 41.3079C49.1486 41.2972 47.6708 40.1881 47.6708 37.9671H47.6707ZM61.6272 41.2036H60.1385L60.0476 41.1127V38.7073L59.9541 38.6138H57.816L57.7225 38.7073V41.1128L57.6316 41.2037H56.1509L56.0574 41.1128V34.8214L56.1509 34.7305H57.6316L57.7225 34.8214V37.1332L57.816 37.2267H59.9541L60.0476 37.1332V34.8214L60.1385 34.7305H61.6192L61.7127 34.8214V41.1128L61.6272 41.2036ZM64.5884 34.7306H66.16L66.3444 34.8215L68.5653 38.3359H68.6588V34.8216L68.7498 34.7307H70.2304L70.3239 34.8216V41.113L70.2304 41.2039H68.6589L68.4719 41.113L66.2536 37.5984H66.16V41.113L66.0691 41.2039H64.5884L64.4949 41.113V34.8216L64.5884 34.7306ZM75.6558 34.637C77.5963 34.637 78.8924 35.8397 78.8924 37.9671C78.8924 40.0944 77.5962 41.2972 75.6559 41.2972C73.7154 41.2972 72.4166 40.0946 72.4166 37.9671C72.4166 35.8397 73.7128 34.637 75.6558 34.637ZM75.6558 39.9101C76.6715 39.9101 77.2274 39.2633 77.2274 37.9671C77.2274 36.6708 76.6715 36.0241 75.6558 36.0241C74.6402 36.0241 74.0816 36.6708 74.0816 37.9671C74.0816 39.2633 74.6376 39.8995 75.6558 39.8995V39.9101ZM85.4377 41.2036H81.0892L80.9983 41.1127V34.8214L81.0892 34.7305H82.5698L82.6634 34.8214V39.7257L82.7543 39.8166H85.4269L85.5204 39.9101V41.1128L85.4377 41.2036ZM90.1575 34.637C92.098 34.637 93.3941 35.8397 93.3941 37.9671C93.3941 40.0944 92.0979 41.2972 90.1576 41.2972C88.2172 41.2972 86.9184 40.0946 86.9184 37.9671C86.9184 35.8397 88.2145 34.637 90.1575 34.637ZM90.1575 39.9101C91.1731 39.9101 91.7291 39.2633 91.7291 37.9671C91.7291 36.6708 91.1731 36.0241 90.1575 36.0241C89.1419 36.0241 88.5833 36.6708 88.5833 37.9671C88.5833 39.2633 89.1393 39.8995 90.1575 39.8995V39.9101ZM96.7937 37.9671C96.7937 39.5386 97.5341 39.9101 98.4588 39.9101C99.3835 39.9101 99.755 39.3542 99.755 38.8919L99.6614 38.801H98.1836L98.0901 38.7073V37.5982L98.1836 37.5047H101.327L101.42 37.5982V41.1128L101.327 41.2037H100.124L100.033 41.1128L99.9395 40.7412H99.8486C99.6376 40.9358 99.3893 41.0854 99.1186 41.181C98.848 41.2766 98.5608 41.3161 98.2744 41.2972C96.425 41.2972 95.1288 40.0945 95.1288 37.967C95.1288 35.8397 96.425 34.6369 98.4589 34.6369C100.124 34.6369 101.131 35.4682 101.42 36.6708L101.327 36.7644H99.7816L99.6614 36.6708C99.477 36.302 99.199 36.024 98.4587 36.024C97.4431 36.024 96.7937 36.4865 96.7937 37.967V37.9671ZM105.536 41.2036H104.058L103.964 41.1127V34.8214L104.058 34.7305H105.536L105.629 34.8214V41.1128L105.536 41.2036ZM113.148 41.2036H108.428L108.337 41.1127V34.8214L108.428 34.7305H113.148L113.238 34.8214V36.024L113.148 36.1176H110.093L110.002 36.2085V37.1333L110.093 37.2268H112.961L113.054 37.3203V38.523L112.961 38.6139H110.093L110.002 38.7074V39.7257L110.093 39.8166H113.148L113.238 39.9102V41.1129L113.148 41.2036ZM118.386 38.7074L117.736 38.6139C115.796 38.3466 115.425 37.4111 115.425 36.4758C115.425 35.4576 116.258 34.6262 118.097 34.6262C119.762 34.6262 120.77 35.2731 120.77 36.5693L120.676 36.6602H119.196L119.105 36.5693C119.105 36.1978 118.838 35.9198 118.087 35.9198C117.336 35.9198 116.977 36.107 116.977 36.4758C116.977 36.8446 117.346 36.9381 117.993 37.0316L118.64 37.1225C120.583 37.3898 120.954 38.2344 120.954 39.2607C120.954 40.287 120.214 41.2946 118.177 41.2946C116.328 41.2946 115.312 40.5542 115.312 39.1564L115.403 39.0629H116.884L116.977 39.1564C116.977 39.7123 117.346 39.9877 118.178 39.9877C118.918 39.9877 119.38 39.8032 119.38 39.3409C119.38 38.8785 119.033 38.801 118.386 38.7075V38.7074Z" fill="black"/>
<defs>
<linearGradient id="paint0_linear_325_26667" x1="94.6269" y1="-4.46627" x2="78.2358" y2="12.5502" gradientUnits="userSpaceOnUse">
<stop offset="0.27" stop-color="#808080"/>
<stop offset="0.37" stop-color="#848484" stop-opacity="0.97"/>
<stop offset="0.47" stop-color="#8F8F8F" stop-opacity="0.88"/>
<stop offset="0.56" stop-color="#A2A2A2" stop-opacity="0.73"/>
<stop offset="0.65" stop-color="#BDBDBD" stop-opacity="0.52"/>
<stop offset="0.74" stop-color="#DFDFDF" stop-opacity="0.25"/>
<stop offset="0.81" stop-color="white" stop-opacity="0"/>
</linearGradient>
</defs>
</svg>
