<svg width="140" height="39" viewBox="0 0 140 39" fill="none" xmlns="http://www.w3.org/2000/svg">
<path d="M20.0465 35.6569C17.9544 36.0238 15.8255 36.1338 13.6232 36.4268L6.90595 16.778V37.2701C4.81382 37.49 2.90518 37.7833 0.923065 38.0765V0.538086H6.50244L14.137 21.8371V0.538086H20.0465V35.6569ZM31.6088 14.2851C33.8847 14.2851 37.3717 14.1751 39.4638 14.1751V20.0403C36.8576 20.0403 33.8112 20.0403 31.6088 20.1503V28.8753C35.0592 28.6554 38.5095 28.3618 41.9964 28.2518V33.8969L25.7358 35.1803V0.538086H41.9964V6.40348H31.6088V14.2851ZM63.8361 6.40361H57.743V33.3843C55.7609 33.3843 53.7788 33.3843 51.8704 33.4575V6.40361H45.7774V0.538086H63.8364L63.8361 6.40361ZM73.3794 13.882H81.418V19.7472H73.3794V33.0545H67.6163V0.538086H84.0241V6.40348H73.3794V13.882ZM93.5674 27.9221C96.9077 27.9952 100.284 28.2522 103.551 28.4352V34.2274C98.3026 33.8972 93.0536 33.5677 87.6947 33.4575V0.538086H93.5674V27.9221ZM108.507 34.6306C110.378 34.7408 112.361 34.8508 114.269 35.0704V0.538086H108.507V34.6306ZM140 0.538086L132.549 18.3909L140 38.0765C137.797 37.7833 135.595 37.38 133.393 37.0134L129.172 26.1626L124.878 36.1338C122.748 35.7669 120.693 35.6569 118.564 35.3637L126.126 18.1708L119.298 0.538086H125.611L129.465 10.3993L133.576 0.538086H140Z" fill="#D81F26"/>
</svg>
