<svg width="167" height="21" viewBox="0 0 167 21" fill="none" xmlns="http://www.w3.org/2000/svg">
<path d="M15.4941 13.0459H4.33016V10.2759H18.7258C18.348 9.10071 17.1309 8.0095 14.9905 8.0095H4.54001C2.14774 8.0095 0.762737 8.89086 0.762737 10.8215V12.878C0.762737 14.5568 2.18971 15.5221 4.28819 15.5221H15.578V18.46H0.38501C0.762737 20.0548 1.97986 20.8942 4.16228 20.8942H15.5361C17.9283 20.8942 19.1035 19.9709 19.1035 17.9983V15.9418C19.1035 14.1371 17.7185 13.1718 15.4941 13.0459V13.0459ZM38.2837 8.05147H24.5176V20.9362H28.4208V15.9837H38.5774C41.3894 15.9837 42.9423 15.0184 42.9423 12.7521V11.3251C42.9003 9.22662 41.1376 8.05147 38.2837 8.05147V8.05147ZM39.5428 12.1645C39.5428 13.0878 39.3749 13.5915 37.864 13.5915H28.4208L28.4627 10.2339H37.6961C39.3749 10.2339 39.5847 10.7375 39.5847 11.6189V12.1645H39.5428ZM55.9109 15.8998H47.6009L45.5444 18.0822H57.5478L59.6043 20.9362H64.2209L54.2741 7.50586L51.9238 10.4018L55.9109 15.8998ZM71.6916 10.2759H86.297C85.9193 8.76495 84.4503 8.0095 82.3519 8.0095H71.4397C69.5511 8.0095 67.7464 8.76495 67.7464 10.8215V18.0403C67.7464 20.0968 69.5511 20.8522 71.4397 20.8522H82.4778C84.996 20.8522 85.8773 20.1387 86.297 18.418H71.6916V10.2759ZM103.421 14.5568V12.3743H91.6272V20.9362H109.045V18.5019H95.5723V14.5568H103.421ZM92.0469 8.05147H109.632V10.3178H92.0469V8.05147ZM120.46 8.05147H114.333L121.552 13.3396C122.601 12.6262 123.818 11.8707 124.909 11.2412L120.46 8.05147ZM129.358 14.6407C128.309 15.3542 127.259 16.1516 126.252 16.9071L131.708 20.8942H137.878L129.358 14.6407Z" fill="black"/>
<path d="M167.214 0.538086C133.638 2.46869 118.11 16.8223 114.626 20.2219L113.913 20.8934H120.124C136.912 4.06354 161.045 1.08369 167.214 0.538086Z" fill="black"/>
</svg>
