<svg width="48" height="48" viewBox="0 0 48 48" fill="none" xmlns="http://www.w3.org/2000/svg">
    <path
        d="M24 30.8245C20.2122 30.8245 17.1755 27.7551 17.1755 24C17.1755 20.2449 20.2449 17.1755 24 17.1755C27.7551 17.1755 30.8245 20.2449 30.8245 24C30.8245 27.7551 27.7878 30.8245 24 30.8245ZM48 21.4857H33.3714L46.0408 14.1714L43.5265 9.82857L30.8571 17.1429L38.1714 4.47347L33.8286 1.95918L26.5143 14.6286V0H21.4857V14.6286L14.1714 1.95918L9.82857 4.47347L17.1429 17.1429L4.47347 9.82857L1.95918 14.1714L14.6286 21.4857H0V26.5143H14.6286L1.95918 33.8286L4.47347 38.1714L17.1429 30.8571L9.82857 43.5265L14.1714 46.0408L21.4857 33.3714V48H26.5143V33.0776L33.9592 45.9755L38.0408 43.6245L30.5959 30.6939L43.5265 38.1714L46.0408 33.8286L33.3714 26.5143H48V21.4857Z"
        fill="#16192C" />
</svg>